<?xml version="1.0" encoding="utf-8"?>
<!-- Generator: Adobe Illustrator 26.2.1, SVG Export Plug-In . SVG Version: 6.00 Build 0)  -->
<svg version="1.1" id="Layer_1" xmlns="http://www.w3.org/2000/svg" xmlns:xlink="http://www.w3.org/1999/xlink" x="0px" y="0px"
	 viewBox="0 0 836.7 179.4" style="enable-background:new 0 0 836.7 179.4;" xml:space="preserve">
<style type="text/css">
	.st0{fill:#238EFF;}
	.st1{fill:#576373;}
	.st2{fill-rule:evenodd;clip-rule:evenodd;fill:#238EFF;}
	.st3{fill-rule:evenodd;clip-rule:evenodd;fill:#1F64CD;}
</style>
<g id="Layer_6">
	<g>
		<g>
			<path class="st0" d="M277.4,142.7c-7.3,0-14.4-1.3-21.3-4c-6.4-2.5-12.1-5.9-17.2-10.3c-0.8-0.7-0.8-1.8-0.2-2.6l0,0
				c4.9-6.2,13.6-8,20.5-4.1c1.4,0.8,2.8,1.5,4.2,2.1c4.8,2.1,10,3.1,15.4,3.1c3.8,0,7-0.5,9.8-1.4c2.7-0.9,4.9-2.2,6.4-3.9
				c1.5-1.7,2.2-3.7,2.2-6c0-3.1-1.1-5.5-3.3-7.1c-2.2-1.7-6-3-11.4-3.9l-17.9-3.1c-7.6-1.3-13.4-4-17.4-8.1s-6-9.4-6-15.9
				c0-5.6,1.4-10.4,4.3-14.5c2.9-4.1,6.9-7.3,12.2-9.4c5.3-2.2,11.5-3.3,18.8-3.3c6.6,0,13.2,1.1,19.7,3.3c5.9,2,11.2,4.7,15.9,8.1
				c0.8,0.6,1,1.8,0.4,2.6l-0.2,0.3c-4.5,6.2-12.8,8.6-19.8,5.3c-5.8-2.7-11.6-4-17.4-4c-3.3,0-6.3,0.4-8.7,1.3
				c-2.5,0.9-4.4,2-5.7,3.5c-1.3,1.5-2,3.3-2,5.3c0,2.7,1,4.9,3,6.4s5.3,2.6,9.9,3.4l17,2.8c9,1.5,15.7,4.3,20.2,8.5
				s6.7,9.8,6.7,16.8c0,5.8-1.5,10.9-4.6,15.2c-3.1,4.3-7.5,7.7-13.2,10C291.8,141.5,285.1,142.7,277.4,142.7z"/>
			<path class="st0" d="M322.4,139.5V76.3c0-1,0.8-1.9,1.9-1.9h13.9c1,0,1.9,0.8,1.9,1.9v3.3c4.8-4.3,10.6-6.4,17.5-6.4
				c4.4,0,8.3,0.9,11.7,2.6c3.4,1.8,6.3,4.2,8.5,7.4c2.7-3.3,6-5.7,9.7-7.5c3.7-1.7,7.9-2.6,12.4-2.6c5.1,0,9.5,1.1,13.3,3.4
				s6.8,5.4,9,9.4s3.3,8.6,3.3,13.9v39.6c0,1-0.8,1.9-1.9,1.9h-13.7c-1,0-1.9-0.8-1.9-1.9v-37.1c0-4.4-1.2-7.8-3.5-10.3
				s-5.4-3.8-9.3-3.8c-2.7,0-5.1,0.6-7.3,1.7c-2.1,1.1-3.9,2.6-5.3,4.7c-0.1,0.4-0.1,0.8-0.2,1.2c0.2,1.1,0.4,2.5,0.4,4.1v39.6
				c0,1-0.8,1.9-1.9,1.9H367c-1,0-1.9-0.8-1.9-1.9v-37.1c0-4.4-1.1-7.8-3.4-10.3s-5.3-3.8-9.2-3.8c-2.7,0-5,0.5-7.1,1.5
				s-3.9,2.6-5.3,4.6v45c0,1-0.8,1.9-1.9,1.9h-13.9C323.2,141.4,322.4,140.6,322.4,139.5z"/>
			<path class="st0" d="M456.1,142.6c-4.8,0-9-0.9-12.7-2.6c-3.7-1.8-6.6-4.2-8.6-7.3c-2.1-3.1-3.1-6.6-3.1-10.7
				c0-6.4,2.4-11.4,7.3-15c4.8-3.6,11.5-5.3,20-5.3c5.8,0,11.3,0.9,16.5,2.7v-4.9c0-3.9-1.2-6.8-3.6-8.7c-2.4-2-5.9-3-10.5-3
				c-2.8,0-5.9,0.4-9.1,1.3c-2.8,0.8-6.1,1.9-9.7,3.5c-0.9,0.4-2,0-2.4-0.9l-4.8-9.6c-0.5-1-0.1-2.1,0.9-2.6c4.7-2,9.1-3.5,13.4-4.6
				c4.8-1.2,9.7-1.8,14.6-1.8c9,0,16,2.2,21,6.5s7.5,10.4,7.5,18.3v41.6c0,1-0.8,1.9-1.9,1.9h-13.6c-1,0-1.9-0.8-1.9-1.9v-2.9
				c-2.7,2.1-5.7,3.6-8.9,4.5C463.3,142.1,459.8,142.6,456.1,142.6z M448.4,121.6c0,2.6,1.1,4.6,3.3,6.1c2.2,1.5,5.2,2.2,8.9,2.2
				c2.9,0,5.6-0.4,8.1-1.1c2.5-0.7,4.7-1.8,6.7-3.3v-9.8c-2.1-0.9-4.4-1.5-6.7-1.9c-2.3-0.4-4.8-0.6-7.5-0.6c-4,0-7.2,0.8-9.4,2.2
				C449.5,117,448.4,119,448.4,121.6z"/>
			<path class="st0" d="M502.7,139.5V76.3c0-1,0.8-1.9,1.9-1.9h13.9c1,0,1.9,0.8,1.9,1.9v5.6c2.1-2.9,4.7-5.1,7.7-6.7
				c3-1.5,6.4-2.3,10.2-2.3c2.6,0.1,4.6,0.4,6.2,1c0.7,0.3,1.1,1,1.1,1.7v11.5c0,1.2-1.2,2.2-2.4,1.8c-0.6-0.2-1.2-0.3-1.9-0.5
				c-1.5-0.3-3.1-0.5-4.8-0.5c-3.4,0-6.6,0.9-9.4,2.6c-2.8,1.7-5.1,4.2-6.8,7.3v41.6c0,1-0.8,1.9-1.9,1.9h-13.9
				C503.6,141.4,502.7,140.6,502.7,139.5z"/>
			<path class="st0" d="M588.6,142.4c-7.5,0-13.1-1.7-16.9-5.1c-3.8-3.4-5.7-8.3-5.7-14.8V89.1h-11.9c-1,0-1.9-0.8-1.9-1.9V76.3
				c0-1,0.8-1.9,1.9-1.9H566V73c0-9.2,6.4-17.1,15.3-19.2l0,0c1.2-0.3,2.3,0.6,2.3,1.8v18.7h17.3c1,0,1.9,0.8,1.9,1.9v10.9
				c0,1-0.8,1.9-1.9,1.9h-17.3v29.8c0,3.1,0.7,5.3,2.1,6.6c1.4,1.3,3.8,2,7.2,2c1.7,0,3.3-0.1,4.7-0.3c0.7-0.1,1.5-0.3,2.3-0.5
				c1.2-0.3,2.4,0.6,2.4,1.8V139c0,0.9-0.6,1.6-1.4,1.8c-1.5,0.4-3.3,0.7-5.3,1C592.9,142.3,590.6,142.4,588.6,142.4z"/>
			<path class="st0" d="M641.3,142.7c-6.7,0-12.7-1.5-18.2-4.6c-5.4-3.1-9.7-7.2-12.9-12.5c-3.2-5.2-4.8-11.1-4.8-17.6
				s1.5-12.4,4.6-17.6c3-5.2,7.2-9.4,12.4-12.5s11.1-4.6,17.5-4.6s12.1,1.6,17.1,4.8c5,3.2,8.9,7.5,11.8,12.9
				c2.9,5.4,4.3,11.5,4.3,18.4v2.8c0,1-0.8,1.9-1.9,1.9h-47.7c0.8,2.7,2,5.1,3.8,7.2s3.9,3.8,6.6,5c2.6,1.2,5.4,1.8,8.4,1.8
				s5.8-0.5,8.3-1.4c2-0.7,3.8-1.7,5.3-2.9c0.7-0.6,1.7-0.5,2.4,0.1l8.7,7.9c0.9,0.8,0.8,2.2-0.2,2.9c-3.5,2.6-7.2,4.6-10.9,5.9
				C651.6,141.9,646.7,142.7,641.3,142.7z M623.2,101.3h32.5c-0.6-2.7-1.7-5-3.3-7s-3.5-3.6-5.7-4.8c-2.2-1.2-4.6-1.7-7.3-1.7
				s-5.2,0.6-7.4,1.7s-4,2.7-5.6,4.7C625,96.2,623.9,98.6,623.2,101.3z"/>
			<path class="st0" d="M680,139.5V76.3c0-1,0.8-1.9,1.9-1.9h13.9c1,0,1.9,0.8,1.9,1.9v5.6c2.1-2.9,4.7-5.1,7.7-6.7
				c3-1.5,6.4-2.3,10.2-2.3c2.6,0.1,4.6,0.4,6.2,1c0.7,0.3,1.1,1,1.1,1.7v11.5c0,1.2-1.2,2.2-2.4,1.8c-0.6-0.2-1.2-0.3-1.9-0.5
				c-1.5-0.3-3.1-0.5-4.8-0.5c-3.4,0-6.6,0.9-9.4,2.6c-2.8,1.7-5.1,4.2-6.8,7.3v41.6c0,1-0.8,1.9-1.9,1.9h-13.9
				C680.9,141.4,680,140.6,680,139.5z"/>
			<path class="st1" d="M769.5,142.7c-8.1,0-15.2-1.6-21.1-4.9c-6-3.3-10.6-7.9-13.8-13.9c-3.3-6-4.9-13.1-4.9-21.3V53.3
				c0-1,0.8-1.9,1.9-1.9h0.1c9.2,0,16.6,7.4,16.6,16.6v34.5c0,4.6,0.9,8.7,2.6,12.1c1.8,3.5,4.2,6.1,7.5,8c3.2,1.8,7,2.8,11.2,2.8
				c4.3,0,8-0.9,11.2-2.8c3.2-1.8,5.6-4.5,7.4-8c1.8-3.5,2.6-7.5,2.6-12.1V68.1c0-9.2,7.4-16.6,16.6-16.6l0,0c1,0,1.9,0.8,1.9,1.9
				v49.3c0,8.1-1.6,15.1-4.9,21.1c-3.3,6-7.9,10.7-13.8,14C784.7,141,777.6,142.7,769.5,142.7z"/>
		</g>
		<g>
			<path class="st2" d="M107.6,93c-23.3-17.3-20.7-45.6,1.5-52.3c0.4-0.1,0.4-0.7,0-0.8c-11.9-4.4-28.1-6.7-39.7,4.2
				c-2.4,2.9-1.8,8,0.4,12.6c0.1,0.2,0.4,0.3,0.6,0.2c1.2-0.5,2.6-0.7,4.1-0.4c2.7,0.5,4.9,2.7,5.3,5.4c0.9,4.8-3.3,8.9-8.1,8
				c-2.7-0.5-4.9-2.7-5.4-5.4c-0.4-2.3,0.3-4.4,1.6-5.9c0.2-0.2,0.2-0.4,0-0.6c-2.5-2.7-3.9-5.6-4.6-8.6c-0.1-0.4-0.5-0.5-0.8-0.2
				c-8.2,9-12.6,19.9-9.5,26.7c4,8.5,9.4,11.8,15.6,13.3c0.3,0.1,0.5-0.1,0.5-0.4c0.7-3.2,3.6-5.6,7.1-5.4s6.4,3.1,6.5,6.6
				c0.1,3.9-3,7.1-6.8,7.1c-3.4,0-6.2-2.4-6.7-5.7c0-0.2-0.2-0.4-0.4-0.4C53,90,47.8,85,46,80.1c-0.1-0.3-0.4-0.4-0.6-0.3
				c-23.6,12.5-23.3,42.3-4.8,56.4c0.3,0.2,0.6,0.1,0.7-0.3c0.9-4.1,3.2-8.7,7.2-13.7c0.1-0.2,0.1-0.4,0-0.6
				c-0.9-1.4-1.3-3.2-0.9-5.1c0.5-2.7,2.7-4.8,5.4-5.3c4.8-0.9,9,3.2,8,8.1c-0.5,2.7-2.7,4.9-5.5,5.4c-1.9,0.3-3.7-0.1-5.1-1.1
				c-0.2-0.1-0.5-0.1-0.6,0.1c-3.1,5.4-6,13.3,0.3,16.4c10,4.9,34.8,6.4,41.6-3.8c1-1.5,0.4-4.9-0.1-7.1c-0.3-1.1,0.5-2.2,1.6-2.4
				l0,0c0.5-0.1,1.1,0,1.5,0.4c1.2,0.9,3.6,2.6,4.7,2.9C113,134.9,135.1,113.5,107.6,93z"/>
			<path class="st3" d="M198.7,116.5c0.9-10.2-5.1-11.8-10.8-12.2c-0.1,0-0.2,0.1-0.2,0.2c0.2,2-0.5,4.1-2.2,5.6
				c-1.9,1.8-4.9,2.2-7.2,1.1c-4.3-2-5.1-7.6-1.7-10.9c1.9-1.8,4.9-2.3,7.3-1.2c1.4,0.7,2.5,1.7,3.1,3c0,0.1,0.1,0.1,0.2,0.1
				c4.7-0.7,8.7-0.3,12.1,0.6c0.1,0,0.2-0.1,0.2-0.2c-1.6-13.3-10.1-25.6-25.3-28.8c-10.2-2.1-20.6-2.7-28.9-11.7
				c-0.2-0.2-0.4-0.2-0.6-0.1c-1.3,0.6-2.9,0.8-4.5,0.3c-2.6-0.7-4.4-2.8-4.9-5.4c-0.8-4.8,3.3-8.9,8.1-7.9c2.7,0.5,4.9,2.7,5.4,5.4
				c0.4,2.3-0.3,4.4-1.6,5.9c-0.2,0.2-0.2,0.5,0.1,0.7c11.1,7.8,17.6,5.6,20.6,3.6c1.2-0.8,1.7-2.3,1.3-3.7
				c-2.1-6.5-10.9-26.5-38.2-25.5c-23,0.8-35.3,30.8-5.3,53.1c28.7,21.3,3.9,55.3-23.1,47.1c-1.5-0.4-2.3,1.6-1,2.3
				c15.3,8.8,66.5,9.9,56.1-33.4c0-0.1-0.3-0.4-0.7-0.2c-0.1,0-0.2,0.1-0.3,0.1c-4.1,1-8.3-2-8.4-6.5c-0.1-2.7,1.5-5.3,4-6.4
				c4.1-1.8,8.6,0.5,9.6,4.6c0.6,2.6-0.3,5.2-2.2,6.8c-0.2,0.2-0.3,0.5-0.2,0.7c6.6,13.9,5.6,24.2-0.2,37.9c0,0.1,0,0.2,0.1,0.2
				C178.8,143.8,197.1,133.4,198.7,116.5z"/>
		</g>
	</g>
</g>
</svg>
